<svg width="136" height="48" viewBox="0 0 136 48" fill="none" xmlns="http://www.w3.org/2000/svg">
<rect width="136" height="48" rx="24" fill="#F21F5B"/>
<path d="M34.0938 30H32.7656V19.7578H26.8984V30H25.5703V18.5781H34.0938V30ZM44.4375 25.7109C44.4375 27.1068 44.0859 28.1979 43.3828 28.9844C42.6797 29.7656 41.7083 30.1562 40.4688 30.1562C39.7031 30.1562 39.0234 29.9766 38.4297 29.6172C37.8359 29.2578 37.3776 28.7422 37.0547 28.0703C36.7318 27.3984 36.5703 26.612 36.5703 25.7109C36.5703 24.3151 36.9193 23.2292 37.6172 22.4531C38.3151 21.6719 39.2839 21.2812 40.5234 21.2812C41.7214 21.2812 42.6719 21.6797 43.375 22.4766C44.0833 23.2734 44.4375 24.3516 44.4375 25.7109ZM37.9141 25.7109C37.9141 26.8047 38.1328 27.638 38.5703 28.2109C39.0078 28.7839 39.651 29.0703 40.5 29.0703C41.349 29.0703 41.9922 28.7865 42.4297 28.2188C42.8724 27.6458 43.0938 26.8099 43.0938 25.7109C43.0938 24.6224 42.8724 23.7969 42.4297 23.2344C41.9922 22.6667 41.3438 22.3828 40.4844 22.3828C39.6354 22.3828 38.9948 22.6615 38.5625 23.2188C38.1302 23.776 37.9141 24.6068 37.9141 25.7109ZM54.1562 32.9609H52.8984V30H46.9141V32.9609H45.6641V28.8828H46.3359C47.0339 27.9349 47.5807 26.8229 47.9766 25.5469C48.3724 24.2708 48.5781 22.901 48.5938 21.4375H52.9297V28.8828H54.1562V32.9609ZM51.6797 28.8828V22.4609H49.7578C49.6901 23.6172 49.4661 24.7891 49.0859 25.9766C48.7109 27.1589 48.2422 28.1276 47.6797 28.8828H51.6797ZM59.8594 30.1562C59.3021 30.1562 58.7917 30.0547 58.3281 29.8516C57.8698 29.6432 57.4844 29.3255 57.1719 28.8984H57.0781C57.1406 29.3984 57.1719 29.8724 57.1719 30.3203V33.8438H55.875V21.4375H56.9297L57.1094 22.6094H57.1719C57.5052 22.1406 57.8932 21.8021 58.3359 21.5938C58.7786 21.3854 59.2865 21.2812 59.8594 21.2812C60.9948 21.2812 61.8698 21.6693 62.4844 22.4453C63.1042 23.2214 63.4141 24.3099 63.4141 25.7109C63.4141 27.1172 63.099 28.2109 62.4688 28.9922C61.8438 29.7682 60.974 30.1562 59.8594 30.1562ZM59.6719 22.3828C58.7969 22.3828 58.1641 22.625 57.7734 23.1094C57.3828 23.5938 57.1823 24.3646 57.1719 25.4219V25.7109C57.1719 26.9141 57.3724 27.776 57.7734 28.2969C58.1745 28.8125 58.8177 29.0703 59.7031 29.0703C60.4427 29.0703 61.0208 28.7708 61.4375 28.1719C61.8594 27.5729 62.0703 26.7474 62.0703 25.6953C62.0703 24.6276 61.8594 23.8099 61.4375 23.2422C61.0208 22.6693 60.4323 22.3828 59.6719 22.3828ZM73.0781 25.7109C73.0781 27.1068 72.7266 28.1979 72.0234 28.9844C71.3203 29.7656 70.349 30.1562 69.1094 30.1562C68.3438 30.1562 67.6641 29.9766 67.0703 29.6172C66.4766 29.2578 66.0182 28.7422 65.6953 28.0703C65.3724 27.3984 65.2109 26.612 65.2109 25.7109C65.2109 24.3151 65.5599 23.2292 66.2578 22.4531C66.9557 21.6719 67.9245 21.2812 69.1641 21.2812C70.362 21.2812 71.3125 21.6797 72.0156 22.4766C72.724 23.2734 73.0781 24.3516 73.0781 25.7109ZM66.5547 25.7109C66.5547 26.8047 66.7734 27.638 67.2109 28.2109C67.6484 28.7839 68.2917 29.0703 69.1406 29.0703C69.9896 29.0703 70.6328 28.7865 71.0703 28.2188C71.513 27.6458 71.7344 26.8099 71.7344 25.7109C71.7344 24.6224 71.513 23.7969 71.0703 23.2344C70.6328 22.6667 69.9844 22.3828 69.125 22.3828C68.276 22.3828 67.6354 22.6615 67.2031 23.2188C66.7708 23.776 66.5547 24.6068 66.5547 25.7109ZM74.9141 24.8672C74.9141 22.9922 75.1901 21.5312 75.7422 20.4844C76.2943 19.4323 77.1693 18.776 78.3672 18.5156C79.8568 18.1979 81.1693 17.9401 82.3047 17.7422L82.5469 18.8828C80.7396 19.1849 79.4479 19.4245 78.6719 19.6016C77.9167 19.7734 77.349 20.1797 76.9688 20.8203C76.5938 21.4609 76.388 22.3333 76.3516 23.4375H76.4453C76.7682 23 77.1849 22.6562 77.6953 22.4062C78.2057 22.1562 78.7396 22.0312 79.2969 22.0312C80.349 22.0312 81.1693 22.3724 81.7578 23.0547C82.3464 23.737 82.6406 24.6823 82.6406 25.8906C82.6406 27.2292 82.2995 28.276 81.6172 29.0312C80.9349 29.7812 79.9844 30.1562 78.7656 30.1562C77.5625 30.1562 76.6198 29.6953 75.9375 28.7734C75.2552 27.8516 74.9141 26.5495 74.9141 24.8672ZM78.8828 29.0703C80.4714 29.0703 81.2656 28.0573 81.2656 26.0312C81.2656 24.099 80.5443 23.1328 79.1016 23.1328C78.7057 23.1328 78.3229 23.2161 77.9531 23.3828C77.5885 23.5443 77.2526 23.7604 76.9453 24.0312C76.6432 24.3021 76.4089 24.5807 76.2422 24.8672C76.2422 26.237 76.4583 27.2812 76.8906 28C77.3229 28.7135 77.987 29.0703 78.8828 29.0703ZM86.2031 21.4375V25.0234H91V21.4375H92.2969V30H91V26.1406H86.2031V30H84.9062V21.4375H86.2031ZM98.6641 30.1562C97.3984 30.1562 96.3984 29.7708 95.6641 29C94.9349 28.2292 94.5703 27.1589 94.5703 25.7891C94.5703 24.4089 94.9089 23.3125 95.5859 22.5C96.2682 21.6875 97.1823 21.2812 98.3281 21.2812C99.401 21.2812 100.25 21.6354 100.875 22.3438C101.5 23.0469 101.812 23.9766 101.812 25.1328V25.9531H95.9141C95.9401 26.9583 96.1927 27.7214 96.6719 28.2422C97.1562 28.763 97.8359 29.0234 98.7109 29.0234C99.6328 29.0234 100.544 28.8307 101.445 28.4453V29.6016C100.987 29.7995 100.552 29.9401 100.141 30.0234C99.7344 30.112 99.2422 30.1562 98.6641 30.1562ZM98.3125 22.3672C97.625 22.3672 97.0755 22.5911 96.6641 23.0391C96.2578 23.487 96.0182 24.1068 95.9453 24.8984H100.422C100.422 24.0807 100.24 23.4557 99.875 23.0234C99.5104 22.5859 98.9896 22.3672 98.3125 22.3672ZM107.648 30.1562C106.383 30.1562 105.383 29.7708 104.648 29C103.919 28.2292 103.555 27.1589 103.555 25.7891C103.555 24.4089 103.893 23.3125 104.57 22.5C105.253 21.6875 106.167 21.2812 107.312 21.2812C108.385 21.2812 109.234 21.6354 109.859 22.3438C110.484 23.0469 110.797 23.9766 110.797 25.1328V25.9531H104.898C104.924 26.9583 105.177 27.7214 105.656 28.2422C106.141 28.763 106.82 29.0234 107.695 29.0234C108.617 29.0234 109.529 28.8307 110.43 28.4453V29.6016C109.971 29.7995 109.536 29.9401 109.125 30.0234C108.719 30.112 108.227 30.1562 107.648 30.1562ZM107.297 22.3672C106.609 22.3672 106.06 22.5911 105.648 23.0391C105.242 23.487 105.003 24.1068 104.93 24.8984H109.406C109.406 24.0807 109.224 23.4557 108.859 23.0234C108.495 22.5859 107.974 22.3672 107.297 22.3672Z" fill="#F7F9FE"/>
</svg>
